<?xml version="1.0" encoding="utf-8"?>
<!-- Generator: Adobe Illustrator 16.0.0, SVG Export Plug-In . SVG Version: 6.00 Build 0)  -->
<!DOCTYPE svg PUBLIC "-//W3C//DTD SVG 1.1//EN" "http://www.w3.org/Graphics/SVG/1.1/DTD/svg11.dtd">
<svg version="1.1" id="Layer_1" xmlns="http://www.w3.org/2000/svg" xmlns:xlink="http://www.w3.org/1999/xlink" x="0px" y="0px"
	 width="612px" height="792px" viewBox="0 0 612 792" enable-background="new 0 0 612 792" xml:space="preserve">
<path fill="none" stroke="#6FA341" stroke-miterlimit="10" d="M218.503,257.083"/>
<g>
	<g>
		<polygon fill="#726658" points="321.369,237.785 321.369,237.777 317.589,227.377 314.078,241.054 309.783,257.797 
			328.638,257.797 328.649,257.796 		"/>
	</g>
</g>
<g>
	<g>
		<polygon fill="#00A585" points="321.369,237.785 321.369,237.777 317.589,227.377 314.078,241.054 309.783,257.797 
			328.638,257.797 328.649,257.796 		"/>
	</g>
</g>
<g opacity="0.1">
	<g>
		<polygon points="321.369,237.785 321.369,237.777 317.589,227.377 317.563,227.499 317.441,247.349 317.441,247.674 
			317.381,257.797 328.638,257.797 328.649,257.796 		"/>
	</g>
</g>
<g>
	<g>
		<polygon fill="#00A585" points="354.766,231.211 348.738,216.509 348.699,216.648 343.492,234.685 337.387,255.86 364.866,255.86 
					"/>
	</g>
</g>
<g opacity="0.1">
	<g>
		<polygon points="354.766,231.211 348.738,216.509 348.699,216.648 348.537,243.556 348.537,244.25 348.464,255.86 364.866,255.86 
					"/>
	</g>
</g>
<g>
	<g>
		<polygon fill="#00A585" points="396.153,247.632 369.682,200.242 369.608,200.389 369.608,200.397 354.766,231.463 
			348.713,244.118 348.537,244.501 342.981,256.112 400.889,256.112 		"/>
	</g>
</g>
<g>
	<g>
		<path fill="#726658" d="M348.209,245.882l-0.177-0.31l-5.044-8.871l-12.44-21.885l-0.058,0.146l-9.06,22.79v0.008l-3.878,9.752
			l-0.073,0.187l-4.041,10.176h15.296c0.036-0.002,0.064-0.009,0.105-0.009c0.032,0,0.059,0.005,0.091,0.008
			c0.431-0.037,0.864-0.057,1.298-0.035c0.071,0.003,0.143,0.023,0.214,0.036h24.586L348.209,245.882z"/>
	</g>
</g>
<g>
	<g>
		<path fill="#00A585" d="M348.209,245.882l-0.177-0.31l-5.044-8.871l-12.44-21.885l-0.058,0.146l-9.06,22.79v0.008l-3.878,9.752
			l-0.073,0.187l-4.041,10.176h15.296c0.036-0.002,0.064-0.009,0.105-0.009c0.032,0,0.059,0.005,0.091,0.008
			c0.431-0.037,0.864-0.057,1.298-0.035c0.071,0.003,0.143,0.023,0.214,0.036h24.586L348.209,245.882z"/>
	</g>
</g>
<g>
	<g>
		<polygon fill="#726658" points="317.553,247.512 317.479,247.381 317.479,247.374 314.101,241.046 303.428,221.086 303.382,221.2 
			303.382,221.208 295.292,242.849 289.672,257.875 323.094,257.875 		"/>
	</g>
</g>
<g>
	<g>
		<polygon fill="#00A585" points="317.553,247.512 317.479,247.381 317.479,247.374 314.101,241.046 303.428,221.086 303.382,221.2 
			303.382,221.208 295.292,242.849 289.672,257.875 323.094,257.875 		"/>
	</g>
</g>
<g opacity="0.1">
	<g>
		<polygon points="317.553,247.512 317.479,247.381 317.479,247.374 314.101,241.046 303.428,221.086 303.382,221.2 
			303.382,221.208 303.18,255.715 303.167,257.875 323.094,257.875 		"/>
	</g>
</g>
<g>
	<g>
		<path fill="#726658" d="M258.184,242.809l-5.09-10.498l-2.476-5.104l-11.837-24.39l-0.085,0.156l-29.176,53.367l-0.838,1.536
			h56.44c0.117-0.031,0.237-0.048,0.358-0.042L258.184,242.809z"/>
	</g>
</g>
<g>
	<g>
		<path fill="#00A585" d="M258.184,242.809l-5.09-10.498l-2.476-5.104l-11.837-24.39l-0.085,0.156l-29.176,53.367l-0.838,1.536
			h56.44c0.117-0.031,0.237-0.048,0.358-0.042L258.184,242.809z"/>
	</g>
</g>
<g>
	<g>
		<path fill="#726658" d="M303.18,255.715l-7.888-12.866l-21.25-34.679l-0.072,0.171l-13.921,32.525l-1.866,4.371l-5.221,12.166
			v0.041l-0.184,0.432h12.343c0.168-0.039,0.343-0.045,0.521-0.017c0.027-0.004,0.089,0.003,0.198,0.04c0.039,0,0.077,0,0.118,0.004
			c0.1-0.014,0.2-0.023,0.277-0.024v-0.002h38.269L303.18,255.715z"/>
	</g>
</g>
<g>
	<g>
		<path fill="#00A585" d="M303.18,255.715l-7.888-12.866l-21.25-34.679l-0.072,0.171l-13.921,32.525l-1.866,4.371l-5.221,12.166
			v0.041l-0.184,0.432h12.343c0.168-0.039,0.343-0.045,0.521-0.017c0.027-0.004,0.089,0.003,0.198,0.04c0.039,0,0.077,0,0.118,0.004
			c0.1-0.014,0.2-0.023,0.277-0.024v-0.002h38.269L303.18,255.715z"/>
	</g>
</g>
<g>
	<g>
		<path fill="#00A585" d="M266.045,257.309l-6.184-17.009l-6.838-18.827l-0.032,0.114v0.016l-2.562,9.98l-6.616,25.726h21.12
			c0.168-0.039,0.341-0.045,0.52-0.018c0.026-0.004,0.088,0.003,0.198,0.04c0.039-0.001,0.077,0,0.118,0.004
			c0.1-0.014,0.201-0.023,0.278-0.024L266.045,257.309z"/>
	</g>
</g>
<rect x="342.728" y="258.034" fill="none" width="10.866" height="3.25"/>
<path fill="none" d="M353.594,253.914v4.057c-0.027-0.023-0.049-0.046-0.076-0.069c-2.369-2.222-6.251-3.673-10.643-3.673h-0.147
	v-0.315H353.594z"/>
<polyline fill="#FFFFFF" points="234.917,210.166 236.146,211.489 238.223,211.3 239.169,209.411 240.775,210.922 241.908,209.505 
	238.781,202.817 "/>
<polygon fill="#FFFFFF" points="271.578,213.883 272.397,215.206 273.279,213.504 274.602,213.567 275.106,214.386 275.798,213.252 
	277.437,213.693 274.043,208.17 "/>
<polygon fill="#FFFFFF" points="367.011,205.568 367.073,209.537 368.839,206.891 370.161,209.537 370.476,207.08 372.617,208.339 
	373.184,206.45 369.682,200.242 "/>
<g>
	<g>
		<path fill="#16957A" d="M257.425,241.213l-4.93-10.129l-2.397-4.923l-11.464-23.532l-0.083,0.149l-4.428,52.972h30.022
			c0.113-0.03,0.228-0.046,0.346-0.041L257.425,241.213z"/>
	</g>
</g>
<g opacity="0.1">
	<g>
		<polygon points="301.945,253.764 294.387,241.426 274.026,208.17 273.958,208.311 273.958,208.334 273.669,255.836 
			303.211,255.836 		"/>
	</g>
</g>
<g opacity="0.1">
	<g>
		<polygon points="396.153,247.632 369.682,200.242 369.608,200.389 369.608,200.397 367.219,256.112 400.889,256.112 		"/>
	</g>
</g>
<polygon opacity="0.1" points="253.094,232.122 264.491,255.521 265.468,255.646 253.179,221.965 "/>
<polygon fill="#FFFFFF" points="328.838,219.049 329.216,222.355 329.971,220.182 332.239,220.655 332.995,219.143 330.548,214.816 
	"/>
<g opacity="0.1">
	<g>
		<path d="M348.209,245.882l-0.177-0.31l-5.044-8.871l-12.44-21.885l-0.058,0.13v0.016l-0.257,42.878
			c0.073,0.004,0.139,0.023,0.209,0.036h24.586L348.209,245.882z"/>
	</g>
</g>
<path fill="#00A585" d="M208.082,263.496c0,1.42,1.53,2.571,3.42,2.571h187.617c1.889,0,3.419-1.151,3.419-2.571v-4.986
	c0-1.418-1.53-2.57-3.419-2.57H211.501c-1.89,0-3.42,1.151-3.42,2.57V263.496z"/>
<path opacity="0.1" d="M402.51,261.857c-0.147,2.391-0.9,4.21-1.808,4.21H209.917c-0.908,0-1.661-1.819-1.809-4.21H402.51z"/>
</svg>
